<svg height="73" viewBox="0 0 73 73" width="73" xmlns="http://www.w3.org/2000/svg"><g fill="none" fill-rule="nonzero"><rect fill="#fff" height="71" rx="14" stroke="#292b31" stroke-width="2" width="71" x="1" y="1"/><g transform="translate(16 17)"><path d="m29.5488281 33.3125h-23.22265623c-2.16363085 0-3.92382812-1.7601973-3.92382812-3.9238281 0-2.1636309 1.76019727-3.9238282 3.92382812-3.9238282h7.68750003c3.4882832 0 6.3261718-2.8378886 6.3261718-6.3261718s-2.8378886-6.3261719-6.3261718-6.3261719h-7.68750003c-.66336718 0-1.20117187.5378047-1.20117187 1.2011719s.53780469 1.2011718 1.20117187 1.2011718h7.68750003c2.1636308 0 3.9238281 1.7601973 3.9238281 3.9238282 0 2.1636308-1.7601973 3.9238281-3.9238281 3.9238281h-7.68750003c-3.4882832 0-6.32617187 2.8378887-6.32617187 6.3261719s2.83788867 6.3261719 6.32617187 6.3261719h23.22265623c.6633672 0 1.2011719-.5378047 1.2011719-1.2011719s-.5378047-1.2011719-1.2011719-1.2011719z" fill="#5c5f66"/><path d="m29.5488281 33.3125h-9.0488281v2.4023438h9.0488281c.6633672 0 1.2011719-.5378047 1.2011719-1.2011719s-.5378047-1.2011719-1.2011719-1.2011719z" fill="#53565c"/><path d="m32.1113281 38.2773437c-2.0753047 0-3.7636719-1.6883671-3.7636719-3.7636718s1.6883672-3.7636719 3.7636719-3.7636719 3.7636719 1.6883672 3.7636719 3.7636719-1.6883672 3.7636718-3.7636719 3.7636718z" fill="#d92c48"/><path d="m3.76367187 17.7773437c-2.07530468 0-3.76367187-1.6883671-3.76367187-3.7636718s1.68836719-3.7636719 3.76367187-3.7636719c2.07530469 0 3.76367188 1.6883672 3.76367188 3.7636719s-1.68836719 3.7636718-3.76367188 3.7636718z" fill="#4db5ff"/><path d="m3.76367188 12.6523437c-.66336719 0-1.20117188-.5378046-1.20117188-1.2011718v-10.25000003c0-.66336718.53780469-1.20117187 1.20117188-1.20117187.66336718 0 1.20117187.53780469 1.20117187 1.20117187v10.25000003c0 .6633672-.53780469 1.2011718-1.20117187 1.2011718z" fill="#5c5f66"/><path d="m11.4511719 7.52734375h-7.68750003c-.66336718 0-1.20117187-.53780469-1.20117187-1.20117188v-5.125c0-.66336718.53780469-1.20117187 1.20117187-1.20117187h7.68750003c.6633672 0 1.2011718.53780469 1.2011718 1.20117187v5.125c0 .66336719-.5378046 1.20117188-1.2011718 1.20117188z" fill="#4db5ff"/><path d="m32.1113281 2.5625c-4.901582 0-8.8886719 3.98708984-8.8886719 8.8886719 0 2.646582 1.153125 5.1121875 3.1734961 6.8074414l4.6453321 9.1128906c.205.402793.6182031.6558398 1.0698437.6558398s.8648438-.2530468 1.0698438-.6558398l4.645332-9.1128906c2.0203711-1.6952539 3.1734961-4.1608594 3.1734961-6.8074414 0-4.90158206-3.9870898-8.8886719-8.8886719-8.8886719zm0 12.6523437c-2.075625 0-3.7636719-1.6880468-3.7636719-3.7636718 0-2.07562503 1.6880469-3.7636719 3.7636719-3.7636719s3.7636719 1.68804687 3.7636719 3.7636719c0 2.075625-1.6880469 3.7636718-3.7636719 3.7636718z" fill="#f23051"/><path d="m41 11.4511719c0 2.646582-1.153125 5.1121875-3.1734961 6.8074414l-4.645332 9.1128906c-.205.402793-.6182032.6558398-1.0698438.6558398v-12.8125c2.075625 0 3.7636719-1.6880468 3.7636719-3.7636718 0-2.07562503-1.6880469-3.7636719-3.7636719-3.7636719v-5.125c4.9015821 0 8.8886719 3.98708984 8.8886719 8.8886719z" fill="#d92c48"/></g></g></svg>